<svg xmlns="http://www.w3.org/2000/svg" viewBox="0 0 1024 1024">
  <defs>
    <linearGradient id="dock-bg" x1="0" y1="0" x2="1" y2="1">
      <stop offset="0" stop-color="#7c3aed"/>
      <stop offset="1" stop-color="#2563eb"/>
    </linearGradient>
  </defs>

  <rect x="96" y="96" width="832" height="832" rx="208" fill="url(#dock-bg)"/>

  <g transform="translate(128 128) scale(32)">
    <defs>
      <mask id="mdi-cutout-mask" x="0" y="0" width="24" height="24" maskUnits="userSpaceOnUse"
            maskContentUnits="userSpaceOnUse">
        <rect width="24" height="24" fill="black"/>
        <g transform="translate(0.00 0.00) scale(1.0000)">
          <path
              d="M10,4H4C2.89,4 2,4.89 2,6V18A2,2 0 0,0 4,20H20A2,2 0 0,0 22,18V8C22,6.89 21.1,6 20,6H12L10,4Z"
              fill="white"/>
        </g>
        <g transform="translate(7.05 7.76) scale(0.4200)">
          <path
              d="M6.5 20Q4.22 20 2.61 18.43 1 16.85 1 14.58 1 12.63 2.17 11.1 3.35 9.57 5.25 9.15 5.88 6.85 7.75 5.43 9.63 4 12 4 14.93 4 16.96 6.04 19 8.07 19 11 20.73 11.2 21.86 12.5 23 13.78 23 15.5 23 17.38 21.69 18.69 20.38 20 18.5 20Z"
              fill="black" stroke="black" stroke-width="5.20" stroke-linecap="round" stroke-linejoin="round"/>
        </g>
      </mask>
    </defs>

    <rect width="24" height="24" fill="#ffffff" mask="url(#mdi-cutout-mask)"/>
    <g transform="translate(7.05 7.76) scale(0.4200)">
      <path
          d="M6.5 20Q4.22 20 2.61 18.43 1 16.85 1 14.58 1 12.63 2.17 11.1 3.35 9.57 5.25 9.15 5.88 6.85 7.75 5.43 9.63 4 12 4 14.93 4 16.96 6.04 19 8.07 19 11 20.73 11.2 21.86 12.5 23 13.78 23 15.5 23 17.38 21.69 18.69 20.38 20 18.5 20Z"
          fill="#ffffff"/>
    </g>
  </g>
</svg>
